<svg width="135" height="44" viewBox="0 0 135 44" fill="none" xmlns="http://www.w3.org/2000/svg">
<g clip-path="url(#clip0_849_530)">
<path d="M2 8C2 6.89375 2.89375 6 4 6H16C17.1063 6 18 6.89375 18 8C18 9.10625 17.1063 10 16 10H4C2.89375 10 2 9.10625 2 8ZM0 16C0 13.7938 1.79375 12 4 12H16C18.2062 12 20 13.7938 20 16V34C20 36.2062 18.2062 38 16 38H4C1.79375 38 0 36.2062 0 34V16ZM7 16H4.3625C4.1625 16 4 16.1625 4 16.3625C4 18.375 5.625 20 7.6375 20H12.3625C14.3688 20 16 18.375 16 16.3625C16 16.1625 15.8375 16 15.6375 16H13C11.8062 16 10.7312 16.525 10 17.3562C9.26875 16.525 8.19375 16 7 16ZM10 23.3563C9.26875 22.525 8.19375 22 7 22H4.3625C4.1625 22 4 22.1625 4 22.3625C4 24.375 5.625 26 7.6375 26H12.3625C14.3688 26 16 24.375 16 22.3625C16 22.1625 15.8375 22 15.6375 22H13C11.8062 22 10.7312 22.525 10 23.3563ZM7 28H4.3625C4.1625 28 4 28.1625 4 28.3625C4 30.375 5.625 32 7.6375 32H9V34C9 34.55 9.45 35 10 35C10.55 35 11 34.55 11 34V32H12.3625C14.3688 32 16 30.375 16 28.3625C16 28.1625 15.8375 28 15.6375 28H13C11.8062 28 10.7312 28.525 10 29.3563C9.26875 28.525 8.19375 28 7 28Z" fill="#FA8A29"/>
</g>
<path d="M35.8027 13.5H34.8008V5.8125H32.1055V4.93359H38.4863V5.8125H35.8027V13.5ZM47.2109 9.20508C47.2109 9.86523 47.127 10.4668 46.959 11.0098C46.791 11.5488 46.541 12.0137 46.209 12.4043C45.8809 12.791 45.4727 13.0898 44.9844 13.3008C44.4961 13.5117 43.9297 13.6172 43.2852 13.6172C42.6211 13.6172 42.041 13.5117 41.5449 13.3008C41.0527 13.0898 40.6426 12.7891 40.3145 12.3984C39.9902 12.0078 39.7461 11.541 39.582 10.998C39.4219 10.4551 39.3418 9.85352 39.3418 9.19336C39.3418 8.31836 39.4863 7.55078 39.7754 6.89062C40.0645 6.23047 40.502 5.7168 41.0879 5.34961C41.6777 4.98242 42.416 4.79883 43.3027 4.79883C44.1504 4.79883 44.8633 4.98047 45.4414 5.34375C46.0234 5.70703 46.4629 6.21875 46.7598 6.87891C47.0605 7.53516 47.2109 8.31055 47.2109 9.20508ZM40.3906 9.20508C40.3906 9.93164 40.4941 10.5605 40.7012 11.0918C40.9082 11.623 41.2246 12.0332 41.6504 12.3223C42.0801 12.6113 42.625 12.7559 43.2852 12.7559C43.9492 12.7559 44.4922 12.6113 44.9141 12.3223C45.3398 12.0332 45.6543 11.623 45.8574 11.0918C46.0605 10.5605 46.1621 9.93164 46.1621 9.20508C46.1621 8.09961 45.9297 7.23633 45.4648 6.61523C45.0039 5.99023 44.2832 5.67773 43.3027 5.67773C42.6387 5.67773 42.0918 5.82031 41.6621 6.10547C41.2324 6.39062 40.9121 6.79688 40.7012 7.32422C40.4941 7.84766 40.3906 8.47461 40.3906 9.20508ZM49.1211 4.93359H51.5469C52.6172 4.93359 53.4219 5.09375 53.9609 5.41406C54.5 5.73438 54.7695 6.2793 54.7695 7.04883C54.7695 7.38086 54.7051 7.67969 54.5762 7.94531C54.4512 8.20703 54.2676 8.42383 54.0254 8.5957C53.7832 8.76758 53.4844 8.88672 53.1289 8.95312V9.01172C53.5039 9.07031 53.8359 9.17773 54.125 9.33398C54.4141 9.49023 54.6406 9.70898 54.8047 9.99023C54.9688 10.2715 55.0508 10.6289 55.0508 11.0625C55.0508 11.5898 54.9277 12.0352 54.6816 12.3984C54.4395 12.7617 54.0957 13.0371 53.6504 13.2246C53.2051 13.4082 52.6777 13.5 52.0684 13.5H49.1211V4.93359ZM50.1172 8.60742H51.7578C52.5039 8.60742 53.0195 8.48438 53.3047 8.23828C53.5938 7.99219 53.7383 7.63281 53.7383 7.16016C53.7383 6.67188 53.5664 6.32031 53.2227 6.10547C52.8828 5.89062 52.3398 5.7832 51.5938 5.7832H50.1172V8.60742ZM50.1172 9.44531V12.6504H51.8984C52.6602 12.6504 53.1992 12.502 53.5156 12.2051C53.832 11.9043 53.9902 11.5 53.9902 10.9922C53.9902 10.668 53.918 10.3906 53.7734 10.1602C53.6328 9.92969 53.4023 9.75391 53.082 9.63281C52.7656 9.50781 52.3418 9.44531 51.8105 9.44531H50.1172Z" fill="white"/>
<path d="M46.0234 37.5H41.6582L37.4199 30.2637V37.5H33.543V23.2227H37.4199V30.1367L41.502 23.2227H45.7402L41.3359 30.0391L46.0234 37.5ZM57.8301 31.9434C57.8301 32.8678 57.7031 33.6882 57.4492 34.4043C57.1953 35.1204 56.8275 35.7227 56.3457 36.2109C55.8639 36.6992 55.2812 37.0703 54.5977 37.3242C53.9141 37.5716 53.1426 37.6953 52.2832 37.6953C51.4824 37.6953 50.7467 37.5716 50.0762 37.3242C49.4121 37.0703 48.8327 36.6992 48.3379 36.2109C47.8431 35.7227 47.459 35.1204 47.1855 34.4043C46.9186 33.6882 46.7852 32.8678 46.7852 31.9434C46.7852 30.7194 47.0065 29.6842 47.4492 28.8379C47.8984 27.9915 48.5365 27.347 49.3633 26.9043C50.1966 26.4616 51.1895 26.2402 52.3418 26.2402C53.403 26.2402 54.347 26.4616 55.1738 26.9043C56.0007 27.347 56.6484 27.9915 57.1172 28.8379C57.5924 29.6842 57.8301 30.7194 57.8301 31.9434ZM50.6621 31.9434C50.6621 32.5749 50.7174 33.1087 50.8281 33.5449C50.9388 33.9746 51.1146 34.3034 51.3555 34.5312C51.6029 34.7526 51.9251 34.8633 52.3223 34.8633C52.7194 34.8633 53.0352 34.7526 53.2695 34.5312C53.5039 34.3034 53.6732 33.9746 53.7773 33.5449C53.888 33.1087 53.9434 32.5749 53.9434 31.9434C53.9434 31.3118 53.888 30.7845 53.7773 30.3613C53.6732 29.9382 53.5007 29.6191 53.2598 29.4043C53.0254 29.1895 52.7064 29.082 52.3027 29.082C51.7233 29.082 51.3034 29.3229 51.043 29.8047C50.7891 30.2865 50.6621 30.9993 50.6621 31.9434ZM63.6016 26.2402C64.5065 26.2402 65.3301 26.3411 66.0723 26.543C66.8145 26.7383 67.4036 27.054 67.8398 27.4902C68.2826 27.9264 68.5039 28.5091 68.5039 29.2383C68.5039 29.8372 68.3184 30.3516 67.9473 30.7812C67.5827 31.2044 67.1009 31.4974 66.502 31.6602V31.7578C67.0879 31.8359 67.5599 32.002 67.918 32.2559C68.2826 32.5033 68.5462 32.8092 68.709 33.1738C68.8783 33.5319 68.9629 33.9258 68.9629 34.3555C68.9629 35.0716 68.7676 35.6803 68.377 36.1816C67.9863 36.6764 67.3809 37.054 66.5605 37.3145C65.7467 37.5684 64.6986 37.6953 63.416 37.6953C62.7454 37.6953 62.1758 37.6693 61.707 37.6172C61.2448 37.5651 60.8346 37.4935 60.4766 37.4023C60.1185 37.3047 59.7604 37.1973 59.4023 37.0801V34.1602C59.8451 34.3099 60.3822 34.4661 61.0137 34.6289C61.6452 34.7852 62.3743 34.8633 63.2012 34.8633C63.7676 34.8633 64.1875 34.8112 64.4609 34.707C64.7409 34.5964 64.9232 34.4661 65.0078 34.3164C65.0924 34.1667 65.1348 34.0332 65.1348 33.916C65.1348 33.7142 65.0827 33.5482 64.9785 33.418C64.8809 33.2812 64.679 33.1771 64.373 33.1055C64.0736 33.0339 63.6146 32.998 62.9961 32.998H61.5605V30.5176H62.7617C63.556 30.5176 64.1094 30.4525 64.4219 30.3223C64.7409 30.1855 64.9004 29.9772 64.9004 29.6973C64.9004 29.4694 64.7865 29.2904 64.5586 29.1602C64.3307 29.0299 63.9564 28.9648 63.4355 28.9648C62.9082 28.9648 62.4102 29.0234 61.9414 29.1406C61.4792 29.2578 60.9909 29.4303 60.4766 29.6582L59.4023 27.0801C60.0599 26.8001 60.7174 26.5918 61.375 26.4551C62.0326 26.3118 62.7747 26.2402 63.6016 26.2402ZM76.2969 26.2402C77.6966 26.2402 78.7904 26.5885 79.5781 27.2852C80.3659 27.9753 80.7598 28.9616 80.7598 30.2441V37.5H78.1133L77.3809 36.0352H77.3027C76.9902 36.4258 76.668 36.7448 76.3359 36.9922C76.0104 37.2331 75.6361 37.4089 75.2129 37.5195C74.7897 37.6367 74.2721 37.6953 73.6602 37.6953C73.0221 37.6953 72.4492 37.5651 71.9414 37.3047C71.4336 37.0443 71.0332 36.6504 70.7402 36.123C70.4473 35.5957 70.3008 34.9284 70.3008 34.1211C70.3008 32.9362 70.7109 32.0573 71.5312 31.4844C72.3516 30.9115 73.5397 30.5892 75.0957 30.5176L76.9414 30.459V30.3027C76.9414 29.8079 76.8177 29.4564 76.5703 29.248C76.3294 29.0397 76.0039 28.9355 75.5938 28.9355C75.1576 28.9355 74.6693 29.0137 74.1289 29.1699C73.5951 29.3197 73.0579 29.515 72.5176 29.7559L71.4141 27.2363C72.0521 26.9108 72.7747 26.6634 73.582 26.4941C74.3893 26.3249 75.2943 26.2402 76.2969 26.2402ZM76.9609 32.5586L76.082 32.5977C75.3789 32.6237 74.8841 32.7474 74.5977 32.9688C74.3177 33.1836 74.1777 33.4928 74.1777 33.8965C74.1777 34.2741 74.2786 34.554 74.4805 34.7363C74.6823 34.9121 74.9492 35 75.2812 35C75.7435 35 76.1374 34.8535 76.4629 34.5605C76.7949 34.2676 76.9609 33.8867 76.9609 33.418V32.5586ZM97.0195 41.5625H93.6797V37.5H83.3574V26.4355H87.1758V34.6582H90.7207V26.4355H94.5391V34.6582H97.0195V41.5625ZM102.41 30.4199H103.67C104.835 30.4199 105.747 30.5534 106.404 30.8203C107.068 31.0872 107.537 31.4746 107.811 31.9824C108.09 32.4837 108.23 33.0957 108.23 33.8184C108.23 34.554 108.074 35.1986 107.762 35.752C107.456 36.3053 106.938 36.735 106.209 37.041C105.486 37.347 104.493 37.5 103.23 37.5H98.5918V26.4355H102.41V30.4199ZM104.412 34.0039C104.412 33.6589 104.318 33.3919 104.129 33.2031C103.947 33.0143 103.576 32.9199 103.016 32.9199H102.41V35H103.055C103.523 35 103.865 34.9154 104.08 34.7461C104.301 34.5703 104.412 34.3229 104.412 34.0039ZM117.938 26.4355H122.156L118.016 31.7383L122.479 37.5H118.113L114.012 31.8848V37.5H110.193V26.4355H114.012V31.7969L117.938 26.4355ZM129.109 26.2402C130.509 26.2402 131.603 26.5885 132.391 27.2852C133.178 27.9753 133.572 28.9616 133.572 30.2441V37.5H130.926L130.193 36.0352H130.115C129.803 36.4258 129.48 36.7448 129.148 36.9922C128.823 37.2331 128.449 37.4089 128.025 37.5195C127.602 37.6367 127.085 37.6953 126.473 37.6953C125.835 37.6953 125.262 37.5651 124.754 37.3047C124.246 37.0443 123.846 36.6504 123.553 36.123C123.26 35.5957 123.113 34.9284 123.113 34.1211C123.113 32.9362 123.523 32.0573 124.344 31.4844C125.164 30.9115 126.352 30.5892 127.908 30.5176L129.754 30.459V30.3027C129.754 29.8079 129.63 29.4564 129.383 29.248C129.142 29.0397 128.816 28.9355 128.406 28.9355C127.97 28.9355 127.482 29.0137 126.941 29.1699C126.408 29.3197 125.87 29.515 125.33 29.7559L124.227 27.2363C124.865 26.9108 125.587 26.6634 126.395 26.4941C127.202 26.3249 128.107 26.2402 129.109 26.2402ZM129.773 32.5586L128.895 32.5977C128.191 32.6237 127.697 32.7474 127.41 32.9688C127.13 33.1836 126.99 33.4928 126.99 33.8965C126.99 34.2741 127.091 34.554 127.293 34.7363C127.495 34.9121 127.762 35 128.094 35C128.556 35 128.95 34.8535 129.275 34.5605C129.607 34.2676 129.773 33.8867 129.773 33.418V32.5586Z" fill="white"/>
<defs>
<clipPath id="clip0_849_530">
<rect width="20" height="32" fill="white" transform="translate(0 6)"/>
</clipPath>
</defs>
</svg>
