<svg width="193" height="52" viewBox="0 0 193 52" fill="none" xmlns="http://www.w3.org/2000/svg">
<rect x="0.5" y="0.5" width="192" height="51" stroke="white"/>
<path d="M69.46 35V15.4H72.82V32.76H79.68V35H69.46ZM87.1219 35.28C85.8152 35.28 84.6765 34.972 83.7059 34.356C82.7539 33.7213 82.0072 32.6667 81.4659 31.192C80.9432 29.7173 80.6819 27.72 80.6819 25.2C80.6819 22.68 80.9432 20.692 81.4659 19.236C82.0072 17.7613 82.7539 16.7067 83.7059 16.072C84.6765 15.4373 85.8152 15.12 87.1219 15.12C88.4285 15.12 89.5579 15.4373 90.5099 16.072C91.4805 16.7067 92.2272 17.7613 92.7499 19.236C93.2912 20.692 93.5619 22.68 93.5619 25.2C93.5619 27.72 93.2912 29.7173 92.7499 31.192C92.2272 32.6667 91.4805 33.7213 90.5099 34.356C89.5579 34.972 88.4285 35.28 87.1219 35.28ZM87.1219 33.32C87.5139 33.32 87.8872 33.1987 88.2419 32.956C88.6152 32.6947 88.9419 32.2653 89.2219 31.668C89.5205 31.0707 89.7539 30.2493 89.9219 29.204C90.1085 28.14 90.2019 26.8053 90.2019 25.2C90.2019 23.5947 90.1085 22.2693 89.9219 21.224C89.7539 20.16 89.5205 19.3293 89.2219 18.732C88.9419 18.1347 88.6152 17.7147 88.2419 17.472C87.8872 17.2107 87.5139 17.08 87.1219 17.08C86.7299 17.08 86.3472 17.2107 85.9739 17.472C85.6192 17.7147 85.2925 18.1347 84.9939 18.732C84.7139 19.3293 84.4805 20.16 84.2939 21.224C84.1259 22.2693 84.0419 23.5947 84.0419 25.2C84.0419 26.8053 84.1259 28.14 84.2939 29.204C84.4805 30.2493 84.7139 31.0707 84.9939 31.668C85.2925 32.2653 85.6192 32.6947 85.9739 32.956C86.3472 33.1987 86.7299 33.32 87.1219 33.32ZM103.216 35.28C101.592 35.28 100.248 34.9907 99.1844 34.412C98.1391 33.8147 97.3551 32.788 96.8324 31.332C96.3284 29.8573 96.0764 27.8133 96.0764 25.2C96.0764 22.5867 96.3191 20.552 96.8044 19.096C97.3084 17.6213 98.0457 16.5947 99.0164 16.016C100.006 15.4187 101.219 15.12 102.656 15.12C103.646 15.12 104.532 15.176 105.316 15.288C106.119 15.4 106.726 15.5307 107.136 15.68V17.22H103.496C102.712 17.22 102.012 17.4533 101.396 17.92C100.78 18.368 100.295 19.1707 99.9404 20.328C99.6044 21.4667 99.4364 23.0907 99.4364 25.2C99.4364 27.2907 99.6137 28.9147 99.9684 30.072C100.323 31.2293 100.827 32.0413 101.48 32.508C102.134 32.956 102.899 33.18 103.776 33.18H104.476V24.36H107.836V34.72C107.426 34.8507 106.81 34.972 105.988 35.084C105.186 35.2147 104.262 35.28 103.216 35.28ZM117.227 35.28C115.921 35.28 114.782 34.972 113.811 34.356C112.859 33.7213 112.113 32.6667 111.571 31.192C111.049 29.7173 110.787 27.72 110.787 25.2C110.787 22.68 111.049 20.692 111.571 19.236C112.113 17.7613 112.859 16.7067 113.811 16.072C114.782 15.4373 115.921 15.12 117.227 15.12C118.534 15.12 119.663 15.4373 120.615 16.072C121.586 16.7067 122.333 17.7613 122.855 19.236C123.397 20.692 123.667 22.68 123.667 25.2C123.667 27.72 123.397 29.7173 122.855 31.192C122.333 32.6667 121.586 33.7213 120.615 34.356C119.663 34.972 118.534 35.28 117.227 35.28ZM117.227 33.32C117.619 33.32 117.993 33.1987 118.347 32.956C118.721 32.6947 119.047 32.2653 119.327 31.668C119.626 31.0707 119.859 30.2493 120.027 29.204C120.214 28.14 120.307 26.8053 120.307 25.2C120.307 23.5947 120.214 22.2693 120.027 21.224C119.859 20.16 119.626 19.3293 119.327 18.732C119.047 18.1347 118.721 17.7147 118.347 17.472C117.993 17.2107 117.619 17.08 117.227 17.08C116.835 17.08 116.453 17.2107 116.079 17.472C115.725 17.7147 115.398 18.1347 115.099 18.732C114.819 19.3293 114.586 20.16 114.399 21.224C114.231 22.2693 114.147 23.5947 114.147 25.2C114.147 26.8053 114.231 28.14 114.399 29.204C114.586 30.2493 114.819 31.0707 115.099 31.668C115.398 32.2653 115.725 32.6947 116.079 32.956C116.453 33.1987 116.835 33.32 117.227 33.32Z" fill="white"/>
</svg>
